<mxfile>
    <diagram id="ywYkB1G1VPl-qcELoWZ5" name="Page-1">
        <mxGraphModel dx="2559" dy="2287" grid="1" gridSize="10" guides="1" tooltips="1" connect="1" arrows="1" fold="1" page="1" pageScale="1" pageWidth="827" pageHeight="1169" math="0" shadow="0">
            <root>
                <mxCell id="0"/>
                <mxCell id="1" parent="0"/>
                <mxCell id="2" value="Actor" style="shape=umlActor;verticalLabelPosition=bottom;verticalAlign=top;html=1;" parent="1" vertex="1">
                    <mxGeometry x="75" y="20" width="30" height="60" as="geometry"/>
                </mxCell>
                <mxCell id="3" value="ReentrantLock" style="shape=umlLifeline;perimeter=lifelinePerimeter;whiteSpace=wrap;html=1;container=1;collapsible=0;recursiveResize=0;outlineConnect=0;" parent="1" vertex="1">
                    <mxGeometry x="240" y="100" width="100" height="1510" as="geometry"/>
                </mxCell>
                <mxCell id="4" value="" style="html=1;points=[];perimeter=orthogonalPerimeter;" parent="3" vertex="1">
                    <mxGeometry x="45" y="60" width="10" height="140" as="geometry"/>
                </mxCell>
                <mxCell id="35" value="" style="html=1;points=[];perimeter=orthogonalPerimeter;fillColor=#ffffff;" parent="3" vertex="1">
                    <mxGeometry x="45" y="265" width="10" height="425" as="geometry"/>
                </mxCell>
                <mxCell id="89" value="" style="html=1;points=[];perimeter=orthogonalPerimeter;fillColor=#ffffff;" parent="3" vertex="1">
                    <mxGeometry x="45" y="770" width="10" height="730" as="geometry"/>
                </mxCell>
                <mxCell id="5" value="NoneFairLock" style="shape=umlLifeline;perimeter=lifelinePerimeter;whiteSpace=wrap;html=1;container=1;collapsible=0;recursiveResize=0;outlineConnect=0;" parent="1" vertex="1">
                    <mxGeometry x="425" y="100" width="100" height="1510" as="geometry"/>
                </mxCell>
                <mxCell id="10" value="" style="html=1;points=[];perimeter=orthogonalPerimeter;" parent="5" vertex="1">
                    <mxGeometry x="45" y="60" width="10" height="130" as="geometry"/>
                </mxCell>
                <mxCell id="38" value="" style="html=1;points=[];perimeter=orthogonalPerimeter;fillColor=#ffffff;" parent="5" vertex="1">
                    <mxGeometry x="45" y="275" width="10" height="405" as="geometry"/>
                </mxCell>
                <mxCell id="55" value="" style="html=1;points=[];perimeter=orthogonalPerimeter;fillColor=#ffffff;" parent="5" vertex="1">
                    <mxGeometry x="55" y="370" width="10" height="270" as="geometry"/>
                </mxCell>
                <mxCell id="95" value="" style="html=1;points=[];perimeter=orthogonalPerimeter;fillColor=#ffffff;" parent="5" vertex="1">
                    <mxGeometry x="45" y="790" width="10" height="670" as="geometry"/>
                </mxCell>
                <mxCell id="104" value="" style="html=1;points=[];perimeter=orthogonalPerimeter;fillColor=#ffffff;" parent="5" vertex="1">
                    <mxGeometry x="55" y="870" width="10" height="30" as="geometry"/>
                </mxCell>
                <mxCell id="11" value="lock()" style="html=1;verticalAlign=bottom;endArrow=block;" parent="1" source="4" target="10" edge="1">
                    <mxGeometry x="-0.0286" relative="1" as="geometry">
                        <mxPoint x="295" y="160" as="sourcePoint"/>
                        <Array as="points">
                            <mxPoint x="450" y="190"/>
                        </Array>
                        <mxPoint as="offset"/>
                    </mxGeometry>
                </mxCell>
                <mxCell id="12" value="" style="html=1;verticalAlign=bottom;endArrow=open;dashed=1;endSize=8;exitX=0;exitY=0.95;" parent="1" source="10" target="4" edge="1">
                    <mxGeometry relative="1" as="geometry">
                        <mxPoint x="295" y="236" as="targetPoint"/>
                    </mxGeometry>
                </mxCell>
                <mxCell id="13" value="AQS" style="shape=umlLifeline;perimeter=lifelinePerimeter;whiteSpace=wrap;html=1;container=1;collapsible=0;recursiveResize=0;outlineConnect=0;" parent="1" vertex="1">
                    <mxGeometry x="790" y="100" width="135" height="1510" as="geometry"/>
                </mxCell>
                <mxCell id="14" value="" style="html=1;points=[];perimeter=orthogonalPerimeter;" parent="13" vertex="1">
                    <mxGeometry x="62.5" y="70" width="10" height="40" as="geometry"/>
                </mxCell>
                <mxCell id="41" value="" style="html=1;points=[];perimeter=orthogonalPerimeter;" parent="13" vertex="1">
                    <mxGeometry x="62.5" y="290" width="10" height="30" as="geometry"/>
                </mxCell>
                <mxCell id="44" value="" style="html=1;points=[];perimeter=orthogonalPerimeter;fillColor=#ffffff;" parent="13" vertex="1">
                    <mxGeometry x="62.5" y="350" width="10" height="310" as="geometry"/>
                </mxCell>
                <mxCell id="68" value="" style="html=1;points=[];perimeter=orthogonalPerimeter;fillColor=#ffffff;" parent="13" vertex="1">
                    <mxGeometry x="52.5" y="467" width="10" height="35" as="geometry"/>
                </mxCell>
                <mxCell id="71" value="" style="html=1;points=[];perimeter=orthogonalPerimeter;fillColor=#ffffff;" parent="13" vertex="1">
                    <mxGeometry x="52.5" y="520" width="10" height="30" as="geometry"/>
                </mxCell>
                <mxCell id="98" value="" style="html=1;points=[];perimeter=orthogonalPerimeter;" parent="13" vertex="1">
                    <mxGeometry x="62.5" y="800" width="10" height="30" as="geometry"/>
                </mxCell>
                <mxCell id="99" value="compairAndSetState(0,1)" style="html=1;verticalAlign=bottom;endArrow=block;entryX=0;entryY=0;" parent="13" target="98" edge="1">
                    <mxGeometry x="0.3105" relative="1" as="geometry">
                        <mxPoint x="-311" y="800" as="sourcePoint"/>
                        <mxPoint as="offset"/>
                    </mxGeometry>
                </mxCell>
                <mxCell id="100" value="return false" style="html=1;verticalAlign=bottom;endArrow=open;dashed=1;endSize=8;exitX=0;exitY=0.95;" parent="13" source="98" edge="1">
                    <mxGeometry x="-0.1966" relative="1" as="geometry">
                        <mxPoint x="-311" y="828.5" as="targetPoint"/>
                        <mxPoint as="offset"/>
                    </mxGeometry>
                </mxCell>
                <mxCell id="101" value="" style="html=1;points=[];perimeter=orthogonalPerimeter;fillColor=#ffffff;" parent="13" vertex="1">
                    <mxGeometry x="62.5" y="850" width="10" height="600" as="geometry"/>
                </mxCell>
                <mxCell id="107" value="" style="html=1;points=[];perimeter=orthogonalPerimeter;fillColor=#ffffff;" parent="13" vertex="1">
                    <mxGeometry x="72.5" y="939.97" width="10" height="180.03" as="geometry"/>
                </mxCell>
                <mxCell id="108" value="addWaiter(null)" style="edgeStyle=orthogonalEdgeStyle;html=1;align=left;spacingLeft=2;endArrow=block;rounded=0;entryX=1;entryY=0;exitX=0.903;exitY=0.114;exitDx=0;exitDy=0;exitPerimeter=0;" parent="13" target="107" edge="1" source="101">
                    <mxGeometry relative="1" as="geometry">
                        <mxPoint x="54.999999999999545" y="920.004482758621" as="sourcePoint"/>
                        <Array as="points">
                            <mxPoint x="73" y="918"/>
                            <mxPoint x="73" y="920"/>
                            <mxPoint x="86" y="920"/>
                            <mxPoint x="86" y="940"/>
                        </Array>
                    </mxGeometry>
                </mxCell>
                <mxCell id="109" value="" style="html=1;points=[];perimeter=orthogonalPerimeter;fillColor=#ffffff;" parent="13" vertex="1">
                    <mxGeometry x="85" y="990" width="10" height="40" as="geometry"/>
                </mxCell>
                <mxCell id="110" value="enq(node)" style="edgeStyle=orthogonalEdgeStyle;html=1;align=left;spacingLeft=2;endArrow=block;rounded=0;entryX=1;entryY=0;" parent="13" source="107" target="109" edge="1">
                    <mxGeometry relative="1" as="geometry">
                        <mxPoint x="70" y="970" as="sourcePoint"/>
                        <Array as="points">
                            <mxPoint x="95" y="970"/>
                            <mxPoint x="95" y="990"/>
                        </Array>
                    </mxGeometry>
                </mxCell>
                <mxCell id="111" value="" style="html=1;points=[];perimeter=orthogonalPerimeter;fillColor=#ffffff;" parent="13" vertex="1">
                    <mxGeometry x="85" y="1069" width="10" height="40" as="geometry"/>
                </mxCell>
                <mxCell id="112" value="park()" style="edgeStyle=orthogonalEdgeStyle;html=1;align=left;spacingLeft=2;endArrow=block;rounded=0;entryX=1;entryY=0;" parent="13" source="107" target="111" edge="1">
                    <mxGeometry relative="1" as="geometry">
                        <mxPoint x="70" y="1050" as="sourcePoint"/>
                        <Array as="points">
                            <mxPoint x="95" y="1050"/>
                            <mxPoint x="95" y="1070"/>
                        </Array>
                    </mxGeometry>
                </mxCell>
                <mxCell id="117" value="阻塞直到unpark" style="ellipse;shape=umlControl;whiteSpace=wrap;html=1;fillColor=#ffffff;" parent="13" vertex="1">
                    <mxGeometry x="72.5" y="1180" width="70" height="80" as="geometry"/>
                </mxCell>
                <mxCell id="15" value="compairAndSetState(0,1)" style="html=1;verticalAlign=bottom;endArrow=block;entryX=0;entryY=0;" parent="1" source="10" target="14" edge="1">
                    <mxGeometry x="0.1798" relative="1" as="geometry">
                        <mxPoint x="605" y="170" as="sourcePoint"/>
                        <mxPoint as="offset"/>
                    </mxGeometry>
                </mxCell>
                <mxCell id="16" value="return true" style="html=1;verticalAlign=bottom;endArrow=open;dashed=1;endSize=8;exitX=0;exitY=0.95;" parent="1" source="14" target="10" edge="1">
                    <mxGeometry x="-0.0204" relative="1" as="geometry">
                        <mxPoint x="605" y="246" as="targetPoint"/>
                        <mxPoint as="offset"/>
                    </mxGeometry>
                </mxCell>
                <mxCell id="21" value="AbstractOwnable&lt;br&gt;Syncronizer" style="shape=umlLifeline;perimeter=lifelinePerimeter;whiteSpace=wrap;html=1;container=1;collapsible=0;recursiveResize=0;outlineConnect=0;" parent="1" vertex="1">
                    <mxGeometry x="1000" y="100" width="100" height="1510" as="geometry"/>
                </mxCell>
                <mxCell id="22" value="" style="html=1;points=[];perimeter=orthogonalPerimeter;fillColor=#ffffff;" parent="21" vertex="1">
                    <mxGeometry x="45" y="130" width="10" height="40" as="geometry"/>
                </mxCell>
                <mxCell id="65" value="" style="html=1;points=[];perimeter=orthogonalPerimeter;fillColor=#ffffff;" parent="21" vertex="1">
                    <mxGeometry x="45" y="430" width="10" height="30" as="geometry"/>
                </mxCell>
                <mxCell id="23" value="setExclusiveOwnerThread" style="html=1;verticalAlign=bottom;endArrow=block;entryX=0;entryY=0;" parent="1" source="10" target="22" edge="1">
                    <mxGeometry x="0.6637" relative="1" as="geometry">
                        <mxPoint x="530" y="280" as="sourcePoint"/>
                        <mxPoint x="1" as="offset"/>
                    </mxGeometry>
                </mxCell>
                <mxCell id="24" value="" style="html=1;verticalAlign=bottom;endArrow=open;dashed=1;endSize=8;exitX=0;exitY=0.95;" parent="1" source="22" target="10" edge="1">
                    <mxGeometry x="-0.4653" relative="1" as="geometry">
                        <mxPoint x="565" y="356" as="targetPoint"/>
                        <mxPoint as="offset"/>
                    </mxGeometry>
                </mxCell>
                <mxCell id="29" value="Thread-1" style="shape=umlLifeline;perimeter=lifelinePerimeter;whiteSpace=wrap;html=1;container=1;collapsible=0;recursiveResize=0;outlineConnect=0;fillColor=#ffffff;" parent="1" vertex="1">
                    <mxGeometry x="40" y="100" width="100" height="1510" as="geometry"/>
                </mxCell>
                <mxCell id="34" value="" style="html=1;points=[];perimeter=orthogonalPerimeter;fillColor=#ffffff;" parent="29" vertex="1">
                    <mxGeometry x="45" y="250" width="10" height="450" as="geometry"/>
                </mxCell>
                <mxCell id="31" value="lock()" style="html=1;verticalAlign=bottom;startArrow=oval;startFill=1;endArrow=block;startSize=8;" parent="1" source="29" target="4" edge="1">
                    <mxGeometry width="60" relative="1" as="geometry">
                        <mxPoint x="95" y="170" as="sourcePoint"/>
                        <mxPoint x="180" y="220" as="targetPoint"/>
                        <Array as="points">
                            <mxPoint x="170" y="170"/>
                        </Array>
                    </mxGeometry>
                </mxCell>
                <mxCell id="32" value="" style="html=1;verticalAlign=bottom;endArrow=open;dashed=1;endSize=8;exitX=-0.077;exitY=0.983;exitDx=0;exitDy=0;exitPerimeter=0;" parent="1" source="4" target="29" edge="1">
                    <mxGeometry relative="1" as="geometry">
                        <mxPoint x="270" y="370" as="sourcePoint"/>
                        <mxPoint x="95" y="297.6199999999999" as="targetPoint"/>
                    </mxGeometry>
                </mxCell>
                <mxCell id="36" value="lock()" style="html=1;verticalAlign=bottom;endArrow=block;entryX=0;entryY=0;" parent="1" source="34" target="35" edge="1">
                    <mxGeometry relative="1" as="geometry">
                        <mxPoint x="215" y="365" as="sourcePoint"/>
                    </mxGeometry>
                </mxCell>
                <mxCell id="39" value="lock()" style="html=1;verticalAlign=bottom;endArrow=block;entryX=0;entryY=0;" parent="1" source="35" target="38" edge="1">
                    <mxGeometry relative="1" as="geometry">
                        <mxPoint x="400" y="375" as="sourcePoint"/>
                    </mxGeometry>
                </mxCell>
                <mxCell id="42" value="compairAndSetState(0,1)" style="html=1;verticalAlign=bottom;endArrow=block;entryX=0;entryY=0;" parent="1" target="41" edge="1">
                    <mxGeometry x="0.3105" relative="1" as="geometry">
                        <mxPoint x="480" y="390" as="sourcePoint"/>
                        <mxPoint as="offset"/>
                    </mxGeometry>
                </mxCell>
                <mxCell id="43" value="return false" style="html=1;verticalAlign=bottom;endArrow=open;dashed=1;endSize=8;exitX=0;exitY=0.95;" parent="1" source="41" target="38" edge="1">
                    <mxGeometry x="-0.1966" relative="1" as="geometry">
                        <mxPoint x="480" y="466" as="targetPoint"/>
                        <mxPoint as="offset"/>
                    </mxGeometry>
                </mxCell>
                <mxCell id="40" value="" style="html=1;verticalAlign=bottom;endArrow=open;dashed=1;endSize=8;exitX=0;exitY=0.95;" parent="1" source="38" target="35" edge="1">
                    <mxGeometry relative="1" as="geometry">
                        <mxPoint x="400" y="451" as="targetPoint"/>
                    </mxGeometry>
                </mxCell>
                <mxCell id="45" value="acquire(1)" style="html=1;verticalAlign=bottom;endArrow=block;entryX=0;entryY=0;" parent="1" target="44" edge="1">
                    <mxGeometry x="0.2571" relative="1" as="geometry">
                        <mxPoint x="480" y="450.0000000000009" as="sourcePoint"/>
                        <mxPoint as="offset"/>
                    </mxGeometry>
                </mxCell>
                <mxCell id="56" value="tryAcquire(1)" style="html=1;verticalAlign=bottom;endArrow=block;exitX=-0.023;exitY=0.131;exitDx=0;exitDy=0;exitPerimeter=0;" parent="1" source="44" target="55" edge="1">
                    <mxGeometry x="-0.2946" relative="1" as="geometry">
                        <mxPoint x="835" y="526.7" as="sourcePoint"/>
                        <mxPoint as="offset"/>
                    </mxGeometry>
                </mxCell>
                <mxCell id="46" value="" style="html=1;verticalAlign=bottom;endArrow=open;dashed=1;endSize=8;exitX=0.023;exitY=0.957;exitDx=0;exitDy=0;exitPerimeter=0;" parent="1" source="44" target="38" edge="1">
                    <mxGeometry relative="1" as="geometry">
                        <mxPoint x="480" y="809.9999999999995" as="targetPoint"/>
                        <mxPoint x="835" y="809.9999999999995" as="sourcePoint"/>
                    </mxGeometry>
                </mxCell>
                <mxCell id="57" value="return true" style="html=1;verticalAlign=bottom;endArrow=open;dashed=1;endSize=8;exitX=1.09;exitY=0.909;exitDx=0;exitDy=0;exitPerimeter=0;" parent="1" source="55" target="44" edge="1">
                    <mxGeometry relative="1" as="geometry">
                        <mxPoint x="835" y="742.7" as="targetPoint"/>
                        <mxPoint x="485" y="546" as="sourcePoint"/>
                    </mxGeometry>
                </mxCell>
                <mxCell id="37" value="" style="html=1;verticalAlign=bottom;endArrow=open;dashed=1;endSize=8;exitX=0;exitY=0.95;" parent="1" source="35" target="34" edge="1">
                    <mxGeometry relative="1" as="geometry">
                        <mxPoint x="215" y="441" as="targetPoint"/>
                    </mxGeometry>
                </mxCell>
                <mxCell id="58" value="Sync" style="shape=umlLifeline;perimeter=lifelinePerimeter;whiteSpace=wrap;html=1;container=1;collapsible=0;recursiveResize=0;outlineConnect=0;fillColor=#ffffff;" parent="1" vertex="1">
                    <mxGeometry x="570" y="100" width="100" height="1510" as="geometry"/>
                </mxCell>
                <mxCell id="59" value="" style="html=1;points=[];perimeter=orthogonalPerimeter;fillColor=#ffffff;" parent="58" vertex="1">
                    <mxGeometry x="45" y="420" width="10" height="160" as="geometry"/>
                </mxCell>
                <mxCell id="60" value="nonfairTryAcquire(1)" style="html=1;verticalAlign=bottom;endArrow=block;entryX=0;entryY=0;" parent="1" source="55" target="59" edge="1">
                    <mxGeometry relative="1" as="geometry">
                        <mxPoint x="975" y="520" as="sourcePoint"/>
                    </mxGeometry>
                </mxCell>
                <mxCell id="66" value="getExclusiveOwnerThread()" style="html=1;verticalAlign=bottom;endArrow=block;entryX=1;entryY=0;" parent="1" source="59" target="65" edge="1">
                    <mxGeometry x="0.5116" relative="1" as="geometry">
                        <mxPoint x="942" y="540" as="sourcePoint"/>
                        <mxPoint as="offset"/>
                    </mxGeometry>
                </mxCell>
                <mxCell id="61" value="" style="html=1;verticalAlign=bottom;endArrow=open;dashed=1;endSize=8;exitX=0;exitY=0.95;" parent="1" source="59" target="55" edge="1">
                    <mxGeometry relative="1" as="geometry">
                        <mxPoint x="975" y="596" as="targetPoint"/>
                    </mxGeometry>
                </mxCell>
                <mxCell id="67" value="" style="html=1;verticalAlign=bottom;endArrow=open;dashed=1;endSize=8;exitX=1;exitY=0.95;" parent="1" source="65" target="59" edge="1">
                    <mxGeometry x="-0.6047" relative="1" as="geometry">
                        <mxPoint x="942" y="597" as="targetPoint"/>
                        <mxPoint as="offset"/>
                    </mxGeometry>
                </mxCell>
                <mxCell id="114" value="==CurrentThread" style="edgeLabel;html=1;align=center;verticalAlign=middle;resizable=0;points=[];" parent="67" vertex="1" connectable="0">
                    <mxGeometry x="-0.2312" relative="1" as="geometry">
                        <mxPoint x="40.14" as="offset"/>
                    </mxGeometry>
                </mxCell>
                <mxCell id="69" value="getState()" style="html=1;verticalAlign=bottom;endArrow=block;entryX=0.034;entryY=0.21;entryDx=0;entryDy=0;entryPerimeter=0;" parent="1" source="59" target="68" edge="1">
                    <mxGeometry x="-0.0516" relative="1" as="geometry">
                        <mxPoint x="755" y="645" as="sourcePoint"/>
                        <mxPoint as="offset"/>
                    </mxGeometry>
                </mxCell>
                <mxCell id="70" value="return 1" style="html=1;verticalAlign=bottom;endArrow=open;dashed=1;endSize=8;exitX=0.034;exitY=0.876;exitDx=0;exitDy=0;exitPerimeter=0;" parent="1" source="68" target="59" edge="1">
                    <mxGeometry x="0.0516" relative="1" as="geometry">
                        <mxPoint x="755" y="702" as="targetPoint"/>
                        <mxPoint as="offset"/>
                    </mxGeometry>
                </mxCell>
                <mxCell id="72" value="setState(2)" style="html=1;verticalAlign=bottom;endArrow=block;entryX=0.034;entryY=0.208;entryDx=0;entryDy=0;entryPerimeter=0;" parent="1" source="59" target="71" edge="1">
                    <mxGeometry x="-0.0516" relative="1" as="geometry">
                        <mxPoint x="755" y="700" as="sourcePoint"/>
                        <mxPoint as="offset"/>
                    </mxGeometry>
                </mxCell>
                <mxCell id="73" value="" style="html=1;verticalAlign=bottom;endArrow=open;dashed=1;endSize=8;exitX=-0.299;exitY=0.837;exitDx=0;exitDy=0;exitPerimeter=0;" parent="1" source="71" target="59" edge="1">
                    <mxGeometry relative="1" as="geometry">
                        <mxPoint x="755" y="757" as="targetPoint"/>
                    </mxGeometry>
                </mxCell>
                <mxCell id="80" value="Thread-2" style="shape=umlLifeline;perimeter=lifelinePerimeter;whiteSpace=wrap;html=1;container=1;collapsible=0;recursiveResize=0;outlineConnect=0;fillColor=#ffffff;" parent="1" vertex="1">
                    <mxGeometry x="-120" y="100" width="100" height="1510" as="geometry"/>
                </mxCell>
                <mxCell id="90" value="lock()" style="html=1;verticalAlign=bottom;endArrow=block;entryX=0;entryY=0;" parent="1" source="80" target="89" edge="1">
                    <mxGeometry relative="1" as="geometry">
                        <mxPoint x="95" y="870" as="sourcePoint"/>
                    </mxGeometry>
                </mxCell>
                <mxCell id="91" value="" style="html=1;verticalAlign=bottom;endArrow=open;dashed=1;endSize=8;exitX=0;exitY=0.95;" parent="1" source="89" target="80" edge="1">
                    <mxGeometry x="-0.0706" y="-10" relative="1" as="geometry">
                        <mxPoint x="95" y="946" as="targetPoint"/>
                        <mxPoint as="offset"/>
                    </mxGeometry>
                </mxCell>
                <mxCell id="96" value="lock()" style="html=1;verticalAlign=bottom;endArrow=block;entryX=0;entryY=0;" parent="1" source="89" target="95" edge="1">
                    <mxGeometry relative="1" as="geometry">
                        <mxPoint x="400" y="890" as="sourcePoint"/>
                    </mxGeometry>
                </mxCell>
                <mxCell id="97" value="" style="html=1;verticalAlign=bottom;endArrow=open;dashed=1;endSize=8;exitX=0;exitY=0.95;" parent="1" source="95" target="89" edge="1">
                    <mxGeometry relative="1" as="geometry">
                        <mxPoint x="400" y="966" as="targetPoint"/>
                    </mxGeometry>
                </mxCell>
                <mxCell id="102" value="acquire(1)" style="html=1;verticalAlign=bottom;endArrow=block;entryX=0;entryY=0;" parent="1" source="95" target="101" edge="1">
                    <mxGeometry relative="1" as="geometry">
                        <mxPoint x="765" y="950" as="sourcePoint"/>
                    </mxGeometry>
                </mxCell>
                <mxCell id="103" value="return false" style="html=1;verticalAlign=bottom;endArrow=open;dashed=1;endSize=8;exitX=0;exitY=0.95;" parent="1" source="101" target="95" edge="1">
                    <mxGeometry relative="1" as="geometry">
                        <mxPoint x="765" y="1026" as="targetPoint"/>
                    </mxGeometry>
                </mxCell>
                <mxCell id="105" value="tryAcquire(1)" style="html=1;verticalAlign=bottom;endArrow=block;entryX=1;entryY=0;" parent="1" source="101" target="104" edge="1">
                    <mxGeometry relative="1" as="geometry">
                        <mxPoint x="550" y="970" as="sourcePoint"/>
                    </mxGeometry>
                </mxCell>
                <mxCell id="106" value="return false" style="html=1;verticalAlign=bottom;endArrow=open;dashed=1;endSize=8;exitX=1;exitY=0.95;" parent="1" source="104" target="101" edge="1">
                    <mxGeometry relative="1" as="geometry">
                        <mxPoint x="550" y="1027" as="targetPoint"/>
                    </mxGeometry>
                </mxCell>
                <mxCell id="116" value="Actor" style="shape=umlActor;verticalLabelPosition=bottom;verticalAlign=top;html=1;" parent="1" vertex="1">
                    <mxGeometry x="-85" y="20" width="30" height="60" as="geometry"/>
                </mxCell>
                <mxCell id="118" value="ReentrantLock 多线程Lock过程" style="swimlane;" vertex="1" parent="1">
                    <mxGeometry x="-140" y="-20" width="1310" height="1690" as="geometry"/>
                </mxCell>
            </root>
        </mxGraphModel>
    </diagram>
</mxfile>